<svg width="146" height="34" viewBox="0 0 146 34" fill="none" xmlns="http://www.w3.org/2000/svg">
<path d="M30.8959 33.3645H20.0876V32.4112H23.5146L19.824 22.19H8.22484L4.53421 32.4112H7.96123V33.3645H0V32.4112H1.95077C2.44285 32.4112 2.77677 32.1641 2.95251 31.6698L14.5517 0H16.3443L27.9434 31.6698C28.1192 32.1641 28.4531 32.4112 28.9452 32.4112H30.8959V33.3645ZM14.0772 6.24924L8.80482 20.7071H19.2968L14.0772 6.24924Z" fill="black"/>
<path d="M45.9434 9.85046C47.3141 9.85046 48.4216 10.433 49.265 11.5981C50.1439 12.7632 50.5832 14.2284 50.5832 15.9938C50.5832 17.7591 49.8625 18.6417 48.4216 18.6417C47.5777 18.6417 46.8926 18.3769 46.3653 17.8473C46.8223 16.8234 47.0504 15.7819 47.0504 14.7227C47.0504 12.8515 46.2773 11.9159 44.7309 11.9159C43.4305 11.9159 42.2704 13.0104 41.2511 15.1993C40.2669 17.353 39.7748 20.4953 39.7748 24.6261V31.6697C39.7748 32.1641 40.0209 32.4112 40.5129 32.4112H44.0454V33.3645H32.7626V32.4112H35.2406C35.7327 32.4112 35.9787 32.1641 35.9787 31.6697V12.1807C35.9787 11.6864 35.7327 11.4392 35.2406 11.4392H32.7626V10.486H35.3461C37.455 10.486 38.9312 10.3801 39.7748 10.1682V16.947C40.3372 14.5109 41.1632 12.7279 42.2528 11.5981C43.3425 10.433 44.5727 9.85046 45.9434 9.85046Z" fill="black"/>
<path d="M63.6953 11.1215C61.692 11.1215 60.0572 12.0924 58.7918 14.0342C57.5616 15.9408 56.9467 18.5711 56.9467 21.9252C56.9467 25.2793 57.5443 27.9273 58.7394 29.8692C59.9696 31.7757 61.5337 32.7289 63.4317 32.7289C65.3648 32.7289 66.9467 32.2347 68.1769 31.2461C69.4071 30.2575 70.2505 28.8452 70.7076 27.0093L71.7093 27.2211C71.2873 29.3748 70.3208 31.0519 68.8096 32.2523C67.2979 33.4174 65.5582 34 63.59 34C60.532 34 57.9836 32.9231 55.9451 30.7695C53.9413 28.6158 52.9396 25.6677 52.9396 21.9252C52.9396 18.1828 53.959 15.2347 55.9975 13.081C58.0365 10.9273 60.6023 9.85046 63.6953 9.85046C66.0855 9.85046 67.8781 10.3977 69.0732 11.4922C70.2683 12.5514 70.8658 13.9813 70.8658 15.7819C70.8658 18.1121 70.2154 19.2773 68.9149 19.2773C67.8604 19.2773 67.0169 18.9948 66.3843 18.4299C66.876 17.3707 67.1223 16.2762 67.1223 15.1464C67.1223 13.9813 66.8235 13.028 66.226 12.2866C65.6636 11.5098 64.8202 11.1215 63.6953 11.1215Z" fill="black"/>
<path d="M88.101 21.0249L88.1534 19.1713V17.3178C88.1534 13.1869 86.8179 11.1215 84.1467 11.1215C82.9867 11.1215 82.0727 11.5275 81.4049 12.3396C80.7722 13.1163 80.4561 14.0342 80.4561 15.0934C80.4561 16.1526 80.5966 17.0706 80.8776 17.8473C80.28 18.3769 79.454 18.6417 78.3998 18.6417C77.3452 18.6417 76.8179 17.7767 76.8179 16.0467C76.8179 14.3167 77.4857 12.8515 78.8213 11.6511C80.1924 10.4506 82.1256 9.85046 84.6211 9.85046C89.5068 9.85046 91.9494 12.7456 91.9494 18.5358V29.3925C91.9494 31.2991 92.4767 32.2523 93.5313 32.2523C94.0235 32.2523 94.445 32.0228 94.7967 31.5638C95.1835 31.1049 95.3764 30.5753 95.3764 29.9751C95.3764 29.3748 95.324 28.81 95.2186 28.2804L96.2203 28.1215C96.3608 28.6511 96.431 29.2336 96.431 29.8692C96.431 31.1402 96.0446 32.1464 95.2711 32.8878C94.533 33.6293 93.5487 34 92.3185 34C91.0883 34 90.0866 33.5057 89.3134 32.5171C88.5402 31.4932 88.1534 29.9751 88.1534 27.9626V27.0093C87.5559 29.4102 86.6071 31.1755 85.3062 32.3053C84.0058 33.4351 82.4946 34 80.7722 34C79.0849 34 77.7142 33.4704 76.6597 32.4112C75.6406 31.3167 75.1307 29.8868 75.1307 28.1215C75.1307 26.3209 75.9567 24.732 77.6089 23.3551C79.261 21.9429 81.6334 21.2367 84.7265 21.2367C85.3943 21.2367 86.5191 21.325 88.101 21.5015V21.0249ZM81.9851 31.9875C83.4611 31.9875 84.7794 31.1578 85.9393 29.4984C87.134 27.8037 87.8373 25.4382 88.0481 22.4019C87.6964 22.3665 87.2047 22.3489 86.572 22.3489C83.7599 22.3489 81.7388 22.9491 80.5086 24.1495C79.3135 25.3146 78.7159 26.6739 78.7159 28.2274C78.7159 29.2513 79.0147 30.1339 79.6122 30.8754C80.2098 31.6168 81.0007 31.9875 81.9851 31.9875Z" fill="black"/>
<path d="M121.052 17.9003V31.7757C121.052 32.1993 121.298 32.4112 121.79 32.4112H124.268V33.3645H114.778V32.4112H116.518C117.01 32.4112 117.256 32.1993 117.256 31.7757V17.2118C117.256 15.4112 116.852 14.0872 116.043 13.2398C115.27 12.3572 114.233 11.9159 112.933 11.9159C111.105 11.9159 109.594 13.0104 108.398 15.1993C107.203 17.353 106.606 20.46 106.606 24.5202V31.6697C106.606 32.1641 106.852 32.4112 107.344 32.4112H109.084V33.3645H99.5936V32.4112H102.072C102.564 32.4112 102.81 32.1993 102.81 31.7757V12.1807C102.81 11.6864 102.564 11.4392 102.072 11.4392H99.5936V10.486H102.177C104.286 10.486 105.762 10.3801 106.606 10.1682V17.3707C107.801 12.3572 110.437 9.85046 114.514 9.85046C116.342 9.85046 117.889 10.5213 119.154 11.8629C120.42 13.1692 121.052 15.1817 121.052 17.9003Z" fill="black"/>
<path d="M127.599 30.0103C125.631 27.8567 124.647 24.9086 124.647 21.1661C124.647 17.4237 125.631 14.4756 127.599 12.3219C129.568 10.1682 132.134 9.09134 135.297 9.09134C138.46 9.09134 141.026 10.1682 142.995 12.3219C144.998 14.4756 146 17.4237 146 21.1661C146 24.9086 144.998 27.8567 142.995 30.0103C141.026 32.164 138.46 33.2409 135.297 33.2409C132.134 33.2409 129.568 32.164 127.599 30.0103ZM129.901 12.953C128.635 14.8948 128.654 17.865 128.654 21.2191C128.654 24.5732 129.287 27.1858 130.552 29.163C131.817 31.1048 133.495 32.2611 135.393 32.2611C137.291 32.2611 138.777 31.1048 140.042 29.163C141.224 27.3661 141.869 25.0006 141.977 22.0664C141.988 21.7721 141.993 21.472 141.993 21.1661C141.993 21.0416 141.992 20.918 141.99 20.7954C141.985 20.4339 141.972 20.0808 141.951 19.7362C141.931 19.4016 141.903 19.0751 141.868 18.7565C141.622 16.5176 141.014 14.6729 140.042 13.2222C138.777 11.2451 137.037 9.98779 135.139 9.98779C132.647 9.98779 131.166 10.9758 129.901 12.953Z" fill="black"/>
<path fill-rule="evenodd" clip-rule="evenodd" d="M141.044 11.5275C139.638 9.90339 137.722 9.09134 135.297 9.09134C132.274 9.09134 129.744 10.1858 127.705 12.3748C125.666 14.5285 124.647 17.4766 124.647 21.2191C124.647 24.9262 125.649 27.8567 127.652 30.0103C129.691 32.164 132.239 33.2409 135.297 33.2409C137.265 33.2409 139.005 32.6583 140.517 31.4932C142.028 30.2928 142.995 28.6158 143.416 26.4621L142.415 26.2502C141.958 28.0862 141.114 29.4984 139.884 30.487C138.654 31.4755 137.23 32.5714 135.297 32.5714C133.399 32.5714 131.251 31.0695 130.021 29.163C128.826 27.2212 126.866 24.8248 128.654 21.2191L128.153 20.7954V19.7362C128.172 18.9803 127.991 18.3417 127.964 17.6531C127.894 15.8652 128.54 14.2275 129.352 12.953C130.511 11.1877 133.227 9.64303 134.843 9.64303C138.077 9.64303 142.415 12.5337 142.415 16.8764C142.415 17.0893 142.427 17.3247 142.441 17.5825C142.474 18.1798 142.513 18.8977 142.415 19.7362H141.951C141.972 20.0808 141.985 20.4339 141.99 20.7954H142.995C143.065 20.0186 143.082 19.1051 143.082 18.4696C143.082 15.3273 142.45 13.1516 141.044 11.5275Z" fill="black"/>
<path d="M125.302 20.5748H135.899C136.321 20.5748 136.567 20.3276 136.637 19.8333L136.901 16.5498H137.85V26.0825H136.901L136.637 22.799C136.567 22.3048 136.321 22.0576 135.899 22.0576H125.302V20.5748Z" fill="black"/>
</svg>
